# Blender 5.0.1
# www.blender.org
mtllib PlayerCar.mtl
o Cube
v -0.827965 1.602292 1.000000
v -4.195782 0.000000 1.000000
v -0.827965 1.602292 -1.000000
v -4.195782 0.000000 -1.000000
v 2.000000 1.602292 1.000000
v 2.843318 0.000000 1.000000
v 2.000000 1.602292 -1.000000
v 2.843318 0.000000 -1.000000
v -1.990761 0.854087 1.000000
v 2.458290 1.000000 -1.000000
v -1.990760 0.854087 -1.000000
v 2.458290 1.000000 1.000000
v -2.630964 0.823548 1.000000
v -2.630964 0.823548 -1.000000
v 2.687435 0.500000 1.000000
v 2.687435 0.500000 -1.000000
vn -0.0000 1.0000 -0.0000
vn -0.0000 -0.0000 -1.0000
vn 0.7958 0.6055 -0.0000
vn -0.0000 -1.0000 -0.0000
vn -0.5411 0.8410 -0.0000
vn -0.0000 -0.0000 1.0000
vn -0.0476 0.9989 -0.0000
vn 0.9091 0.4166 -0.0000
vn 0.9547 0.2976 -0.0000
vn -0.4657 0.8849 -0.0000
vt 0.500000 0.500000
vt 0.747854 0.500000
vt 0.747854 0.747854
vt 0.500000 0.747854
vt 0.376073 0.747854
vt 0.500000 0.995707
vt 0.376073 0.995707
vt 0.376073 0.004293
vt 0.500000 0.004293
vt 0.500000 0.252146
vt 0.376073 0.252146
vt 0.004293 0.500000
vt 0.252146 0.500000
vt 0.252146 0.747854
vt 0.004293 0.747854
vt 0.376073 0.500000
vt 0.314110 0.252146
vt 0.314110 0.500000
vt 0.314110 0.747854
vt 0.314110 0.004293
vt 0.314110 0.995707
vt 0.252146 0.995707
vt 0.252146 0.004293
vt 0.252146 0.252146
s 0
usemtl Material
f 1/1/1 5/2/1 7/3/1 3/4/1
f 11/5/2 3/4/2 7/6/2 10/7/2
f 10/8/3 7/9/3 5/10/3 12/11/3
f 6/12/4 2/13/4 4/14/4 8/15/4
f 9/16/5 1/1/5 3/4/5 11/5/5
f 12/11/6 5/10/6 1/1/6 9/16/6
f 15/17/6 12/11/6 9/16/6 13/18/6
f 13/18/7 9/16/7 11/5/7 14/19/7
f 16/20/8 10/8/8 12/11/8 15/17/8
f 14/19/2 11/5/2 10/7/2 16/21/2
f 4/14/2 14/19/2 16/21/2 8/22/2
f 8/23/9 16/20/9 15/17/9 6/24/9
f 2/13/10 13/18/10 14/19/10 4/14/10
f 6/24/6 15/17/6 13/18/6 2/13/6
